<svg width="16.000000" height="16.000000" viewBox="0 0 16 16" fill="none" xmlns="http://www.w3.org/2000/svg" xmlns:xlink="http://www.w3.org/1999/xlink">
	<desc>
			Created with Pixso.
	</desc>
	<defs>
		<clipPath id="clip92_3969">
			<rect id="material-symbols:mode-fan-off" width="16.000000" height="16.000000" fill="white" fill-opacity="0"/>
		</clipPath>
	</defs>
	<rect id="material-symbols:mode-fan-off" width="16.000000" height="16.000000" fill="#FFFFFF" fill-opacity="0"/>
	<g clip-path="url(#clip92_3969)">
		<path id="Vector" d="M14.6719 8.93335C14.6719 9.5 14.4922 9.93066 14.1328 10.2253C13.7812 10.52 13.3828 10.6671 12.9531 10.6667C12.8828 10.6667 12.8203 10.6641 12.75 10.6587C12.6875 10.6533 12.6172 10.6394 12.5547 10.6167L5.40625 3.46667C5.54688 2.8667 5.91406 2.36121 6.51562 1.95007C7.10938 1.53894 7.91406 1.33337 8.9375 1.33337C9.5 1.33337 9.9375 1.50293 10.2266 1.84204C10.5234 2.18115 10.6719 2.56165 10.6719 2.9834C10.6719 3.27222 10.6094 3.55554 10.4766 3.83337C10.3516 4.11121 10.1562 4.33899 9.88281 4.51672C9.64062 4.67224 9.44531 4.87231 9.29688 5.1167C9.14844 5.36121 9.03906 5.62231 8.98438 5.90002L9.1875 6C9.25 6.03333 9.3125 6.07227 9.36719 6.1167L10.9062 5.55005C11.0938 5.4834 11.2734 5.43066 11.4453 5.39209C11.6172 5.35339 11.7969 5.33386 11.9844 5.33337C12.8828 5.33337 13.5625 5.70557 14 6.45007C14.4453 7.19446 14.6719 8.02222 14.6719 8.93335ZM13.6562 15.5333L10.6172 12.4834C10.4766 13.0834 10.1094 13.5974 9.51562 14.0254C8.91406 14.4534 8.10156 14.6671 7.07031 14.6667C6.5 14.6667 6.07031 14.4972 5.78125 14.1581C5.48438 13.819 5.33594 13.433 5.33594 13C5.33594 12.7112 5.39844 12.4305 5.53125 12.1581C5.65625 11.8856 5.85156 11.6608 6.11719 11.4834C6.36719 11.3278 6.5625 11.1278 6.71094 10.8834C6.85938 10.6389 6.96094 10.3778 7.02344 10.1001L6.82031 10C6.75 9.96667 6.69531 9.92786 6.63281 9.88342L5.10156 10.4333C4.91406 10.5 4.73438 10.5555 4.55469 10.6001C4.375 10.6445 4.19531 10.6667 4 10.6667C3.30469 10.6667 2.67969 10.3612 2.14062 9.75C1.60156 9.13892 1.33594 8.24451 1.33594 7.06665C1.33594 6.5 1.50781 6.06958 1.84375 5.77539C2.1875 5.4812 2.5625 5.33386 2.98438 5.33337C3.07812 5.33337 3.16406 5.33899 3.26562 5.3501C3.35938 5.36121 3.44531 5.37781 3.53906 5.40002L0.453125 2.33337L1.40625 1.38342L14.6016 14.5834L13.6562 15.5333Z" fill="#355EA5" fill-opacity="1.000000" fill-rule="nonzero"/>
	</g>
</svg>
