<svg width="16.000000" height="16.000000" viewBox="0 0 16 16" fill="none" xmlns="http://www.w3.org/2000/svg" xmlns:xlink="http://www.w3.org/1999/xlink">
	<desc>
			Created with Pixso.
	</desc>
	<defs>
		<clipPath id="clip92_3967">
			<rect id="material-symbols:oil-barrel" width="16.000000" height="16.000000" fill="white" fill-opacity="0"/>
		</clipPath>
	</defs>
	<rect id="material-symbols:oil-barrel" width="16.000000" height="16.000000" fill="#FFFFFF" fill-opacity="0"/>
	<g clip-path="url(#clip92_3967)">
		<path id="Vector" d="M2.66406 14C2.47656 14 2.32031 13.936 2.19531 13.808C2.0625 13.6801 2 13.5217 2 13.3334C2 13.1444 2.0625 12.9862 2.19531 12.8586C2.32031 12.7311 2.47656 12.6671 2.66406 12.6666L3.33594 12.6666L3.33594 8.66663L2.66406 8.66663C2.47656 8.66663 2.32031 8.60266 2.19531 8.47461C2.0625 8.34668 2 8.18848 2 8C2 7.81116 2.0625 7.65283 2.19531 7.52539C2.32031 7.39783 2.47656 7.33374 2.66406 7.33337L3.33594 7.33337L3.33594 3.33337L2.66406 3.33337C2.47656 3.33337 2.32031 3.26929 2.19531 3.14136C2.0625 3.01331 2 2.8551 2 2.66663C2 2.47778 2.0625 2.31958 2.19531 2.19202C2.32031 2.06445 2.47656 2.00049 2.66406 2L13.3359 2C13.5234 2 13.6797 2.06396 13.8125 2.19202C13.9375 2.31995 14 2.47827 14 2.66663C14 2.85559 13.9375 3.01404 13.8047 3.14197C13.6797 3.27002 13.5234 3.33374 13.3359 3.33337L12.6641 3.33337L12.6641 7.33337L13.3359 7.33337C13.5234 7.33337 13.6797 7.39734 13.8125 7.52539C13.9375 7.65332 14 7.81152 14 8C14 8.18884 13.9375 8.34729 13.8047 8.47534C13.6797 8.60339 13.5234 8.66711 13.3359 8.66663L12.6641 8.66663L12.6641 12.6666L13.3359 12.6666C13.5234 12.6666 13.6797 12.7307 13.8125 12.8586C13.9375 12.9867 14 13.1449 14 13.3334C14 13.5222 13.9375 13.6807 13.8047 13.8087C13.6797 13.9366 13.5234 14.0005 13.3359 14L2.66406 14ZM8 10.6666C8.55469 10.6666 9.03125 10.4751 9.41406 10.092C9.80469 9.70886 10 9.24487 10 8.69995C10 8.26672 9.875 7.89441 9.625 7.58337C9.375 7.27222 8.83594 6.6333 8 5.66663C7.16406 6.62219 6.625 7.25842 6.375 7.57532C6.125 7.89221 6 8.26709 6 8.69995C6 9.24438 6.19531 9.7085 6.58594 10.092C6.96875 10.4756 7.44531 10.6671 8 10.6666Z" fill="#355EA5" fill-opacity="1.000000" fill-rule="nonzero"/>
	</g>
</svg>
