<svg width="20.000000" height="20.000000" viewBox="0 0 20 20" fill="none" xmlns="http://www.w3.org/2000/svg" xmlns:xlink="http://www.w3.org/1999/xlink">
	<desc>
			Created with Pixso.
	</desc>
	<defs/>
	<path id="Vector" d="M10 0C4.47998 0 0 4.47998 0 10C0 15.52 4.47998 20 10 20C15.52 20 20 15.52 20 10C20 4.47998 15.52 0 10 0ZM14.6401 6.7998C14.4902 8.37988 13.8398 12.2202 13.5098 13.9902C13.3701 14.7402 13.0898 14.9902 12.8301 15.02C12.25 15.0698 11.8101 14.6401 11.25 14.27C10.3701 13.6899 9.87012 13.3301 9.02002 12.77C8.02979 12.1201 8.66992 11.7598 9.24023 11.1802C9.39014 11.0298 11.9502 8.7002 12 8.49023C12.0068 8.45801 12.0059 8.42529 11.9971 8.39404C11.9888 8.3623 11.9722 8.3335 11.9502 8.31006C11.8901 8.25977 11.8101 8.27979 11.7402 8.29004C11.6499 8.31006 10.25 9.24023 7.52002 11.0801C7.12012 11.3501 6.75977 11.4902 6.43994 11.48C6.08008 11.4702 5.3999 11.2798 4.89014 11.1099C4.25977 10.9102 3.77002 10.7998 3.81006 10.4502C3.83008 10.27 4.08008 10.0898 4.5498 9.8999C7.47021 8.62988 9.41016 7.79004 10.3799 7.39014C13.1602 6.22998 13.73 6.02979 14.1099 6.02979C14.1899 6.02979 14.3799 6.0498 14.5 6.1499C14.6001 6.22998 14.6299 6.33984 14.6401 6.41992C14.6299 6.47998 14.6499 6.66016 14.6401 6.7998Z" fill="#FFFFFF" fill-opacity="1.000000" fill-rule="nonzero"/>
</svg>
