<svg width="20.000000" height="20.000000" viewBox="0 0 20 20" fill="none" xmlns="http://www.w3.org/2000/svg" xmlns:xlink="http://www.w3.org/1999/xlink">
	<desc>
			Created with Pixso.
	</desc>
	<defs/>
	<path id="Vector" d="M10 0C4.47998 0 0 4.48001 0 10C0 15.52 4.47998 20 10 20C15.52 20 20 15.52 20 10C20 4.48001 15.52 0 10 0ZM14.6401 6.79999C14.4902 8.38 13.8398 12.22 13.5098 13.99C13.3701 14.74 13.0898 14.99 12.8301 15.02C12.25 15.07 11.8101 14.64 11.25 14.27C10.3701 13.69 9.87012 13.33 9.02002 12.77C8.02979 12.12 8.66992 11.76 9.24023 11.18C9.39014 11.03 11.9502 8.70001 12 8.48999C12.0068 8.45819 12.0059 8.42517 11.9971 8.3938C11.9888 8.36243 11.9722 8.33368 11.9502 8.31C11.8901 8.26001 11.8101 8.28 11.7402 8.29001C11.6499 8.31 10.25 9.23999 7.52002 11.08C7.12012 11.35 6.75977 11.49 6.43994 11.48C6.08008 11.47 5.3999 11.28 4.89014 11.11C4.25977 10.91 3.77002 10.8 3.81006 10.45C3.83008 10.27 4.08008 10.09 4.5498 9.89999C7.47021 8.63 9.41016 7.79001 10.3799 7.39001C13.1602 6.23001 13.73 6.03 14.1099 6.03C14.1899 6.03 14.3799 6.04999 14.5 6.14999C14.6001 6.23001 14.6299 6.34 14.6401 6.42001C14.6299 6.48001 14.6499 6.66 14.6401 6.79999Z" fill="#00A3FF" fill-opacity="1.000000" fill-rule="nonzero"/>
</svg>
