<svg width="20.000000" height="20.000000" viewBox="0 0 20 20" fill="none" xmlns="http://www.w3.org/2000/svg" xmlns:xlink="http://www.w3.org/1999/xlink">
	<desc>
			Created with Pixso.
	</desc>
	<defs/>
	<path id="Vector" d="M10 0C4.47705 0 0 4.47705 0 10C0 15.5229 4.47705 20 10 20C15.5229 20 20 15.5229 20 10C20 4.47705 15.5229 0 10 0ZM13.8457 11.2822C13.8457 11.2822 14.73 12.1553 14.9478 12.5605C14.9541 12.5688 14.9575 12.5771 14.9595 12.5811C15.0479 12.73 15.0688 12.8457 15.0249 12.9321C14.9521 13.0762 14.7021 13.147 14.6167 13.1533L13.0542 13.1533C12.9458 13.1533 12.7188 13.125 12.4438 12.9355C12.2324 12.7876 12.0239 12.5449 11.8208 12.3081C11.5176 11.9561 11.2554 11.6519 10.9907 11.6519C10.957 11.6519 10.9238 11.6572 10.8916 11.6675C10.6919 11.7324 10.4355 12.0176 10.4355 12.7783C10.4355 13.0156 10.248 13.1519 10.1157 13.1519L9.3999 13.1519C9.15625 13.1519 7.88623 13.0669 6.76123 11.8804C5.38428 10.4272 4.14502 7.5127 4.13428 7.48535C4.05615 7.29688 4.21777 7.1958 4.39355 7.1958L5.97168 7.1958C6.18213 7.1958 6.25098 7.32373 6.29883 7.4375C6.35498 7.56982 6.56152 8.0957 6.8999 8.6875C7.44873 9.65186 7.78564 10.0439 8.05518 10.0439C8.10596 10.043 8.15527 10.0303 8.2002 10.0063C8.55225 9.81055 8.48633 8.55518 8.4707 8.29492C8.4707 8.24561 8.46973 7.7334 8.28955 7.4873C8.16064 7.30957 7.94043 7.2417 7.80713 7.2168C7.86133 7.14209 7.93213 7.08203 8.01465 7.04053C8.25635 6.91992 8.69189 6.90186 9.12402 6.90186L9.36475 6.90186C9.8335 6.9082 9.9541 6.93848 10.124 6.98145C10.4678 7.06348 10.4751 7.28564 10.4448 8.04492C10.4355 8.26025 10.4263 8.50439 10.4263 8.7915C10.4263 8.854 10.4229 8.9209 10.4229 8.9917C10.4126 9.37793 10.3999 9.81689 10.6729 9.99707C10.7085 10.019 10.7495 10.0312 10.7915 10.0312C10.8862 10.0312 11.1719 10.0312 11.9448 8.70508C12.1831 8.27832 12.3901 7.83496 12.5645 7.37793C12.5801 7.35107 12.626 7.26758 12.6802 7.23535C12.7202 7.21484 12.7646 7.20459 12.8096 7.20508L14.6646 7.20508C14.8667 7.20508 15.0054 7.23535 15.0312 7.31348C15.0771 7.4375 15.0229 7.81543 14.1763 8.9624L13.7979 9.46143C13.0303 10.4678 13.0303 10.5186 13.8457 11.2822Z" fill="#FFFFFF" fill-opacity="1.000000" fill-rule="nonzero"/>
</svg>
