<svg width="20.000000" height="20.000000" viewBox="0 0 20 20" fill="none" xmlns="http://www.w3.org/2000/svg" xmlns:xlink="http://www.w3.org/1999/xlink">
	<desc>
			Created with Pixso.
	</desc>
	<defs/>
	<path id="Vector" d="M10 0C4.47705 0 0 4.47708 0 10C0 15.5229 4.47705 20 10 20C15.5229 20 20 15.5229 20 10C20 4.47708 15.5229 0 10 0ZM13.8457 11.2823C13.8457 11.2823 14.73 12.1552 14.9478 12.5604C14.9541 12.5688 14.9575 12.5771 14.9595 12.5812C15.0479 12.7302 15.0688 12.8458 15.0249 12.9323C14.9521 13.076 14.7021 13.1469 14.6167 13.1531L13.0542 13.1531C12.9458 13.1531 12.7188 13.125 12.4438 12.9354C12.2324 12.7875 12.0239 12.5448 11.8208 12.3083C11.5176 11.9562 11.2554 11.6521 10.9907 11.6521C10.957 11.652 10.9238 11.6573 10.8916 11.6677C10.6919 11.7323 10.4355 12.0177 10.4355 12.7781C10.4355 13.0156 10.248 13.1521 10.1157 13.1521L9.3999 13.1521C9.15625 13.1521 7.88623 13.0667 6.76123 11.8802C5.38428 10.4271 4.14502 7.51251 4.13428 7.48541C4.05615 7.29688 4.21777 7.19583 4.39355 7.19583L5.97168 7.19583C6.18213 7.19583 6.25098 7.32394 6.29883 7.4375C6.35498 7.56979 6.56152 8.09583 6.8999 8.6875C7.44873 9.65207 7.78564 10.0438 8.05518 10.0438C8.10596 10.0432 8.15527 10.0303 8.2002 10.0063C8.55225 9.81042 8.48633 8.55521 8.4707 8.2948C8.4707 8.24582 8.46973 7.73334 8.28955 7.48749C8.16064 7.30939 7.94043 7.24167 7.80713 7.21667C7.86133 7.14221 7.93213 7.08182 8.01465 7.04062C8.25635 6.9198 8.69189 6.90207 9.12402 6.90207L9.36475 6.90207C9.8335 6.90833 9.9541 6.93854 10.124 6.98126C10.4678 7.06354 10.4751 7.28543 10.4448 8.0448C10.4355 8.26041 10.4263 8.50418 10.4263 8.79166C10.4263 8.85416 10.4229 8.92084 10.4229 8.99167C10.4126 9.37811 10.3999 9.81668 10.6729 9.99689C10.7085 10.0192 10.7495 10.0311 10.7915 10.0312C10.8862 10.0312 11.1719 10.0312 11.9448 8.7052C12.1831 8.27838 12.3901 7.83487 12.5645 7.37811C12.5801 7.35104 12.626 7.2677 12.6802 7.23541C12.7202 7.21503 12.7646 7.20468 12.8096 7.2052L14.6646 7.2052C14.8667 7.2052 15.0054 7.23541 15.0312 7.31354C15.0771 7.4375 15.0229 7.81561 14.1763 8.96249L13.7979 9.46146C13.0303 10.4677 13.0303 10.5187 13.8457 11.2823Z" fill="#144290" fill-opacity="1.000000" fill-rule="nonzero"/>
</svg>
