<svg width="19.899902" height="20.000000" viewBox="0 0 19.8999 20" fill="none" xmlns="http://www.w3.org/2000/svg" xmlns:xlink="http://www.w3.org/1999/xlink">
	<desc>
			Created with Pixso.
	</desc>
	<defs/>
	<path id="Vector" d="M17 2.91016C16.083 1.98389 14.9912 1.24951 13.7876 0.75C12.584 0.250488 11.293 -0.00439453 9.99023 0C4.52979 0 0.0800781 4.4502 0.0800781 9.91016C0.0800781 11.6602 0.540039 13.3599 1.3999 14.8599L0 20L5.25 18.6201C6.7002 19.4102 8.33008 19.8301 9.99023 19.8301C15.4502 19.8301 19.8999 15.3799 19.8999 9.91992C19.8999 7.27002 18.8701 4.78027 17 2.91016ZM9.99023 18.1499C8.50977 18.1499 7.06006 17.75 5.79004 17L5.49023 16.8198L2.37012 17.6401L3.2002 14.6001L3 14.29C2.17773 12.9771 1.74121 11.4595 1.74023 9.91016C1.74023 5.37012 5.43994 1.66992 9.97998 1.66992C12.1802 1.66992 14.25 2.53027 15.7998 4.08984C16.5674 4.854 17.1758 5.7627 17.5894 6.76367C18.0029 7.76416 18.2139 8.8374 18.21 9.91992C18.23 14.46 14.5298 18.1499 9.99023 18.1499ZM14.5098 11.9902C14.2598 11.8701 13.04 11.27 12.8198 11.1802C12.5898 11.1001 12.4302 11.0601 12.2598 11.3003C12.0898 11.5503 11.6201 12.1099 11.48 12.27C11.3398 12.4399 11.1899 12.46 10.9399 12.3301C10.6899 12.21 9.89014 11.9399 8.9502 11.1001C8.20996 10.4399 7.72021 9.62988 7.56982 9.37988C7.43018 9.12988 7.5498 9 7.68018 8.87012C7.79004 8.76025 7.93018 8.58008 8.0498 8.43994C8.16992 8.30029 8.22021 8.18994 8.2998 8.03027C8.37988 7.85986 8.33984 7.72021 8.27979 7.6001C8.22021 7.47998 7.72021 6.26025 7.52002 5.76025C7.31982 5.28027 7.10986 5.33984 6.95996 5.33008L6.47998 5.33008C6.31006 5.33008 6.0498 5.39014 5.81982 5.64014C5.6001 5.89014 4.95996 6.49023 4.95996 7.70996C4.95996 8.93018 5.8501 10.1099 5.97021 10.27C6.08984 10.4399 7.72021 12.9399 10.2002 14.0103C10.79 14.27 11.25 14.4199 11.6099 14.5303C12.2002 14.7202 12.7402 14.6899 13.1699 14.6299C13.6499 14.5601 14.6401 14.0303 14.8398 13.4502C15.0498 12.8701 15.0498 12.3799 14.98 12.27C14.9102 12.1602 14.7598 12.1099 14.5098 11.9902Z" fill="#FFFFFF" fill-opacity="1.000000" fill-rule="nonzero"/>
</svg>
