<svg width="19.899902" height="20.000061" viewBox="0 0 19.8999 20.0001" fill="none" xmlns="http://www.w3.org/2000/svg" xmlns:xlink="http://www.w3.org/1999/xlink">
	<desc>
			Created with Pixso.
	</desc>
	<defs/>
	<path id="Vector" d="M17 2.91006C16.083 1.98398 14.9912 1.24973 13.7876 0.750122C12.584 0.250488 11.293 -0.00448608 9.99023 6.10352e-05C4.52979 6.10352e-05 0.0800781 4.45007 0.0800781 9.91006C0.0800781 11.6601 0.540039 13.36 1.3999 14.86L0 20.0001L5.25 18.6201C6.7002 19.4101 8.33008 19.83 9.99023 19.83C15.4502 19.83 19.8999 15.3801 19.8999 9.92004C19.8999 7.27005 18.8701 4.78006 17 2.91006ZM9.99023 18.1501C8.50977 18.1501 7.06006 17.7501 5.79004 17.0001L5.49023 16.8201L2.37012 17.64L3.2002 14.6001L3 14.2901C2.17773 12.977 1.74121 11.4593 1.74023 9.91006C1.74023 5.37006 5.43994 1.67007 9.97998 1.67007C12.1802 1.67007 14.25 2.53006 15.7998 4.09006C16.5674 4.85403 17.1758 5.76273 17.5894 6.76349C18.0029 7.76425 18.2139 8.83716 18.21 9.92004C18.23 14.4601 14.5298 18.1501 9.99023 18.1501ZM14.5098 11.9901C14.2598 11.8701 13.04 11.2701 12.8198 11.1801C12.5898 11.1001 12.4302 11.0601 12.2598 11.3C12.0898 11.55 11.6201 12.11 11.48 12.2701C11.3398 12.4401 11.1899 12.4601 10.9399 12.33C10.6899 12.2101 9.89014 11.9401 8.9502 11.1001C8.20996 10.4401 7.72021 9.63007 7.56982 9.38007C7.43018 9.13007 7.5498 9.00006 7.68018 8.87006C7.79004 8.76007 7.93018 8.58005 8.0498 8.44006C8.16992 8.30005 8.22021 8.19006 8.2998 8.03006C8.37988 7.86005 8.33984 7.72006 8.27979 7.60007C8.22021 7.48007 7.72021 6.26007 7.52002 5.76007C7.31982 5.28006 7.10986 5.34006 6.95996 5.33005L6.47998 5.33005C6.31006 5.33005 6.0498 5.39005 5.81982 5.64005C5.6001 5.89005 4.95996 6.49005 4.95996 7.71005C4.95996 8.93005 5.8501 10.11 5.97021 10.2701C6.08984 10.4401 7.72021 12.9401 10.2002 14.0101C10.79 14.2701 11.25 14.42 11.6099 14.5301C12.2002 14.7201 12.7402 14.6901 13.1699 14.6301C13.6499 14.5601 14.6401 14.0301 14.8398 13.4501C15.0498 12.8701 15.0498 12.3801 14.98 12.2701C14.9102 12.1601 14.7598 12.11 14.5098 11.9901Z" fill="#00DE4C" fill-opacity="1.000000" fill-rule="nonzero"/>
</svg>
