<svg width="20.000000" height="14.000000" viewBox="0 0 20 14" fill="none" xmlns="http://www.w3.org/2000/svg" xmlns:xlink="http://www.w3.org/1999/xlink">
	<desc>
			Created with Pixso.
	</desc>
	<defs/>
	<path id="Vector" d="M8 10L13.1899 7L8 4L8 10ZM19.5601 2.16992C19.6899 2.64014 19.7798 3.27002 19.8398 4.06982C19.9102 4.87012 19.9399 5.56006 19.9399 6.16016L20 7C20 9.18994 19.8398 10.7998 19.5601 11.8301C19.3101 12.73 18.73 13.3101 17.8301 13.5601C17.3599 13.6899 16.5 13.7798 15.1802 13.8398C13.8799 13.9102 12.6899 13.9399 11.5898 13.9399L10 14C5.81006 14 3.2002 13.8398 2.16992 13.5601C1.27002 13.3101 0.689941 12.73 0.439941 11.8301C0.310059 11.3599 0.220215 10.73 0.160156 9.93018C0.0898438 9.12988 0.0600586 8.43994 0.0600586 7.83984L0 7C0 4.81006 0.160156 3.2002 0.439941 2.16992C0.689941 1.27002 1.27002 0.689941 2.16992 0.439941C2.64014 0.310059 3.5 0.220215 4.81982 0.160156C6.12012 0.0898438 7.31006 0.0600586 8.41016 0.0600586L10 0C14.1899 0 16.7998 0.160156 17.8301 0.439941C18.73 0.689941 19.3101 1.27002 19.5601 2.16992Z" fill="#FFFFFF" fill-opacity="1.000000" fill-rule="nonzero"/>
</svg>
