<svg width="20.000000" height="14.000000" viewBox="0 0 20 14" fill="none" xmlns="http://www.w3.org/2000/svg" xmlns:xlink="http://www.w3.org/1999/xlink">
	<desc>
			Created with Pixso.
	</desc>
	<defs/>
	<path id="Vector" d="M8 10L13.1899 7L8 4L8 10ZM19.5601 2.17001C19.6899 2.64001 19.7798 3.26999 19.8398 4.07001C19.9102 4.87 19.9399 5.56 19.9399 6.16L20 7C20 9.19 19.8398 10.8 19.5601 11.83C19.3101 12.73 18.73 13.31 17.8301 13.56C17.3599 13.69 16.5 13.78 15.1802 13.84C13.8799 13.91 12.6899 13.94 11.5898 13.94L10 14C5.81006 14 3.2002 13.84 2.16992 13.56C1.27002 13.31 0.689941 12.73 0.439941 11.83C0.310059 11.36 0.220215 10.73 0.160156 9.92999C0.0898438 9.13 0.0600586 8.44 0.0600586 7.84L0 7C0 4.81 0.160156 3.20001 0.439941 2.17001C0.689941 1.26999 1.27002 0.690002 2.16992 0.440002C2.64014 0.309998 3.5 0.220001 4.81982 0.160004C6.12012 0.0899963 7.31006 0.0599976 8.41016 0.0599976L10 0C14.1899 0 16.7998 0.160004 17.8301 0.440002C18.73 0.690002 19.3101 1.26999 19.5601 2.17001Z" fill="#EB1616" fill-opacity="1.000000" fill-rule="nonzero"/>
</svg>
