<svg width="30.008301" height="30.000000" viewBox="0 0 30.0083 30" fill="none" xmlns="http://www.w3.org/2000/svg" xmlns:xlink="http://www.w3.org/1999/xlink">
	<desc>
			Created with Pixso.
	</desc>
	<defs/>
	<path id="Vector" d="M21.8252 16.5C22.9502 16.5 23.9399 15.885 24.4502 14.955L29.8198 5.22C29.9463 4.99265 30.0112 4.73621 30.0083 4.47609C30.0049 4.21596 29.9341 3.96115 29.8022 3.73689C29.6704 3.51263 29.4824 3.32668 29.2563 3.19743C29.0308 3.06818 28.7749 3.00012 28.5151 3L6.31494 3L4.90479 0L0 0L0 3L3 3L8.3999 14.385L6.375 18.045C5.27979 20.055 6.72021 22.5 9 22.5L27 22.5L27 19.5L9 19.5L10.6499 16.5L21.8252 16.5ZM7.74023 6L25.9648 6L21.8252 13.5L11.2949 13.5L7.74023 6ZM9 24C7.3501 24 6.01514 25.35 6.01514 27C6.01514 28.65 7.3501 30 9 30C10.6499 30 12 28.65 12 27C12 25.35 10.6499 24 9 24ZM24 24C22.3501 24 21.0151 25.35 21.0151 27C21.0151 28.65 22.3501 30 24 30C25.6499 30 27 28.65 27 27C27 25.35 25.6499 24 24 24Z" fill="#999EA9" fill-opacity="1.000000" fill-rule="nonzero"/>
</svg>
