<svg width="28.000000" height="21.000000" viewBox="0 0 28 21" fill="none" xmlns="http://www.w3.org/2000/svg" xmlns:xlink="http://www.w3.org/1999/xlink">
	<desc>
			Created with Pixso.
	</desc>
	<defs/>
	<path id="Vector" d="M0 21L4.375 21L4.375 16.625L0 16.625L0 21ZM0 12.6875L4.375 12.6875L4.375 8.3125L0 8.3125L0 12.6875ZM0 4.375L4.375 4.375L4.375 0L0 0L0 4.375ZM23.625 0L23.625 4.375L28 4.375L28 0L23.625 0ZM15.75 4.375L20.125 4.375L20.125 0L15.75 0L15.75 4.375ZM23.625 21L28 21L28 16.625L23.625 16.625L23.625 21ZM23.625 12.6875L28 12.6875L28 8.3125L23.625 8.3125L23.625 12.6875ZM7.875 21L12.25 21L12.25 16.625L7.875 16.625L7.875 21ZM15.75 21L20.125 21L20.125 16.625L15.75 16.625L15.75 21ZM7.875 4.375L12.25 4.375L12.25 0L7.875 0L7.875 4.375ZM15.75 12.6875L20.125 12.6875L20.125 8.3125L15.75 8.3125L15.75 12.6875ZM7.875 12.6875L12.25 12.6875L12.25 8.3125L7.875 8.3125L7.875 12.6875Z" fill="#999EA9" fill-opacity="1.000000" fill-rule="nonzero"/>
</svg>
