<svg width="27.000000" height="27.000000" viewBox="0 0 27 27" fill="none" xmlns="http://www.w3.org/2000/svg" xmlns:xlink="http://www.w3.org/1999/xlink">
	<desc>
			Created with Pixso.
	</desc>
	<defs/>
	<path id="Vector" d="M24 0L3 0C1.3501 0 0 1.35001 0 3L0 24C0 25.65 1.3501 27 3 27L24 27C25.6499 27 27 25.65 27 24L27 3C27 1.35001 25.6499 0 24 0ZM24 24L3 24L3 3L24 3L24 24ZM6 10.5L9 10.5L9 21L6 21L6 10.5ZM12 6L15 6L15 21L12 21L12 6ZM18 15L21 15L21 21L18 21L18 15Z" fill="#999EA9" fill-opacity="1.000000" fill-rule="nonzero"/>
</svg>
