<svg width="14.000000" height="20.000000" viewBox="0 0 14 20" fill="none" xmlns="http://www.w3.org/2000/svg" xmlns:xlink="http://www.w3.org/1999/xlink">
	<desc>
			Created with Pixso.
	</desc>
	<defs/>
	<path id="Vector" d="M7 0C3.12988 0 0 3.13 0 7C0 12.25 7 20 7 20C7 20 14 12.25 14 7C14 3.13 10.8701 0 7 0ZM7 9.5C6.33691 9.5 5.70117 9.2366 5.23242 8.76776C4.76318 8.29892 4.5 7.66306 4.5 7C4.5 6.33694 4.76318 5.70108 5.23242 5.23224C5.70117 4.7634 6.33691 4.5 7 4.5C7.66309 4.5 8.29883 4.7634 8.76758 5.23224C9.23682 5.70108 9.5 6.33694 9.5 7C9.5 7.66306 9.23682 8.29892 8.76758 8.76776C8.29883 9.2366 7.66309 9.5 7 9.5Z" fill="#355EA5" fill-opacity="1.000000" fill-rule="nonzero"/>
</svg>
