<svg width="30.000000" height="27.525002" viewBox="0 0 30 27.525" fill="none" xmlns="http://www.w3.org/2000/svg" xmlns:xlink="http://www.w3.org/1999/xlink">
	<desc>
			Created with Pixso.
	</desc>
	<defs/>
	<path id="Vector" d="M21.75 0C19.1401 0 16.6348 1.215 15 3.13499C13.3652 1.215 10.8599 0 8.25 0C3.62988 0 0 3.63 0 8.25C0 13.92 5.1001 18.54 12.8252 25.56L15 27.525L17.1748 25.545C24.8999 18.54 30 13.92 30 8.25C30 3.63 26.3701 0 21.75 0ZM15.1499 23.325L15 23.475L14.8501 23.325C7.70996 16.86 3 12.585 3 8.25C3 5.25 5.25 3 8.25 3C10.5601 3 12.8101 4.485 13.605 6.53999L16.4102 6.53999C17.1899 4.485 19.4399 3 21.75 3C24.75 3 27 5.25 27 8.25C27 12.585 22.29 16.86 15.1499 23.325Z" fill="#999EA9" fill-opacity="1.000000" fill-rule="nonzero"/>
</svg>
