<svg width="24.890625" height="24.888916" viewBox="0 0 24.8906 24.8889" fill="none" xmlns="http://www.w3.org/2000/svg" xmlns:xlink="http://www.w3.org/1999/xlink">
	<desc>
			Created with Pixso.
	</desc>
	<defs/>
	<path id="Vector" d="M0 0L7.10938 0L7.10938 7.11108L0 7.11108L0 0Z" fill="#355EA5" fill-opacity="1.000000" fill-rule="nonzero"/>
	<path id="Vector" d="M8.89062 0L24.8906 0L24.8906 7.11108L8.89062 7.11108L8.89062 0Z" fill="#355EA5" fill-opacity="1.000000" fill-rule="nonzero"/>
	<path id="Vector" d="M0 8.88892L7.10938 8.88892L7.10938 16L0 16L0 8.88892Z" fill="#355EA5" fill-opacity="1.000000" fill-rule="nonzero"/>
	<path id="Vector" d="M8.89062 8.88892L24.8906 8.88892L24.8906 16L8.89062 16L8.89062 8.88892Z" fill="#355EA5" fill-opacity="1.000000" fill-rule="nonzero"/>
	<path id="Vector" d="M0 17.7778L7.10938 17.7778L7.10938 24.8889L0 24.8889L0 17.7778Z" fill="#355EA5" fill-opacity="1.000000" fill-rule="nonzero"/>
	<path id="Vector" d="M8.89062 17.7778L24.8906 17.7778L24.8906 24.8889L8.89062 24.8889L8.89062 17.7778Z" fill="#355EA5" fill-opacity="1.000000" fill-rule="nonzero"/>
</svg>
