<svg width="14.207520" height="14.215775" viewBox="0 0 14.2075 14.2158" fill="none" xmlns="http://www.w3.org/2000/svg" xmlns:xlink="http://www.w3.org/1999/xlink">
	<desc>
			Created with Pixso.
	</desc>
	<defs/>
	<path id="Vector" d="M10.418 9.16786L9.75977 9.16786L9.52637 8.94287C10.0469 8.33784 10.4277 7.62518 10.6406 6.85588C10.854 6.08658 10.8945 5.27966 10.7598 4.49287C10.3677 2.17619 8.43457 0.326202 6.10107 0.0428619C5.28076 -0.0609131 4.44775 0.0243378 3.66553 0.292114C2.8833 0.559875 2.17236 1.00305 1.58789 1.58772C1.00293 2.17241 0.560059 2.88309 0.291992 3.66539C0.0244141 4.44769 -0.0610352 5.28088 0.0429688 6.1012C0.326172 8.43454 2.17627 10.3679 4.49268 10.7595C5.27979 10.8946 6.08643 10.854 6.85596 10.6408C7.625 10.4276 8.33789 10.047 8.94287 9.5262L9.16797 9.75954L9.16797 10.4179L12.7095 13.9595C13.0513 14.3012 13.6094 14.3012 13.9512 13.9595C14.293 13.6179 14.293 13.0595 13.9512 12.7179L10.418 9.16786ZM5.41797 9.16786C3.34277 9.16786 1.66797 7.49287 1.66797 5.41786C1.66797 3.34286 3.34277 1.66786 5.41797 1.66786C7.49268 1.66786 9.16797 3.34286 9.16797 5.41786C9.16797 7.49287 7.49268 9.16786 5.41797 9.16786Z" fill="#999EA9" fill-opacity="1.000000" fill-rule="nonzero"/>
</svg>
