<svg width="18.000000" height="18.000000" viewBox="0 0 18 18" fill="none" xmlns="http://www.w3.org/2000/svg" xmlns:xlink="http://www.w3.org/1999/xlink">
	<desc>
			Created with Pixso.
	</desc>
	<defs/>
	<path id="Vector" d="M17.0098 12.38C15.7798 12.38 14.5898 12.18 13.48 11.82C13.3062 11.761 13.1191 11.7523 12.9404 11.7947C12.7617 11.8372 12.5986 11.9291 12.4702 12.06L10.8999 14.03C8.06982 12.68 5.41992 10.13 4.00977 7.20001L5.95996 5.54001C6.22998 5.26001 6.31006 4.87 6.2002 4.51999C5.83008 3.41 5.64014 2.22 5.64014 0.98999C5.64014 0.450012 5.18994 0 4.6499 0L1.18994 0C0.649902 0 0 0.23999 0 0.98999C0 10.28 7.72998 18 17.0098 18C17.7202 18 18 17.37 18 16.82L18 13.37C18 12.83 17.5498 12.38 17.0098 12.38Z" fill="#355EA5" fill-opacity="1.000000" fill-rule="nonzero"/>
</svg>
