<svg width="64.000000" height="64.000000" viewBox="0 0 64 64" fill="none" xmlns="http://www.w3.org/2000/svg" xmlns:xlink="http://www.w3.org/1999/xlink">
	<desc>
			Created with Pixso.
	</desc>
	<defs>
		<clipPath id="clip171_6148">
			<rect id="leasing 1" width="64.000000" height="64.000000" fill="white" fill-opacity="0"/>
		</clipPath>
	</defs>
	<rect id="leasing 1" width="64.000000" height="64.000000" fill="#FFFFFF" fill-opacity="0"/>
	<g clip-path="url(#clip171_6148)">
		<path id="Vector" d="M35.2734 48.8511L35.0078 48.8511C33.6406 48.8511 32.2812 48.8511 30.9453 48.8187C29.5781 48.7861 28.2188 48.6886 26.8828 48.5261L23.6016 48.1036C22.5625 47.9735 21.2891 47.811 21.1953 46.4133C21.1016 45.1782 21.8125 44.8207 22.6562 44.7557C23.0469 44.7231 23.4688 44.7881 23.8281 44.8531L25 44.9832C28.8047 45.4058 34.8438 46.0883 38.2891 45.4058C38.5234 45.3732 39.0078 45.1782 39.5625 44.9507C40.2734 44.6581 41.0234 44.3331 41.3516 44.1381C44.3359 42.5454 47.6875 41.2452 50.6094 39.6201C51.8438 39.0025 52.9531 38.4174 54.6406 38.905C55 39.0025 55.3281 39.1325 55.6484 39.3275C56.6562 39.8801 57.375 40.6927 57.7266 41.6353C58.0859 42.5779 58.1484 43.618 57.8594 44.6257C57.7656 44.9182 57.6641 45.2432 57.5 45.5358C56.9531 46.5759 56.2656 46.9984 55.3594 47.551C51.4922 49.9563 47.6562 52.394 43.75 54.7668C42.7109 55.4169 41.6406 56.0995 40.4375 56.4896C36.4375 57.7897 33.0938 58.0822 29.8438 57.6272C26.5938 57.2047 23.4375 56.0345 19.7656 54.4743L18.4297 53.8568L17.1641 53.2067C15.0234 52.069 13.75 51.9715 12.9375 51.9065C11.9609 51.8415 11.4766 51.809 11.1484 50.8664L11.1484 55.1569C11.2188 56.587 11.2812 58.0822 9.42969 59.2849C8.51562 59.9025 6.11719 59.8374 4.55469 59.8049L3.25 59.8049C2.375 59.8374 1.14062 59.8699 0.65625 59.4149C0.296875 59.0898 0.101562 58.7323 0.0390625 58.4073C-0.03125 58.1472 0 57.8872 0.0703125 57.6597C0.132812 57.4321 0.265625 57.2371 0.421875 57.1071C0.65625 56.8796 0.914062 56.717 1.17188 56.6846C1.98438 56.4895 3.48438 56.522 4.875 56.522C6.24219 56.522 7.54688 56.5546 7.86719 56.4245C7.89844 56.392 7.83594 56.2945 7.83594 56.1645C7.83594 54.7018 7.86719 53.2391 7.86719 51.7765C7.89844 46.6734 7.96875 41.0177 7.83594 36.1422L7.83594 35.1995C7.83594 34.582 7.83594 34.257 7.74219 34.2244C7.38281 34.0619 6.5 34.0619 4.78125 34.0619L2.4375 34.0619C1.42969 34.0619 0.226562 34.0619 0.0390625 32.6642C-0.03125 32.2742 0.0703125 31.9817 0.265625 31.6891C0.390625 31.4616 0.554688 31.2991 0.6875 31.1691C1.10938 30.7465 1.59375 30.7791 2.11719 30.8115L3.35156 30.8115C4.875 30.8115 6.96094 30.7791 7.96875 30.9091C8.58594 30.9741 9.03906 31.1366 9.39844 31.3316C9.75781 31.5591 10.0156 31.8192 10.2734 32.1117C10.6953 32.5667 10.9219 32.9893 11.0234 33.4443C11.1172 33.8669 11.1172 34.257 11.1172 34.6795L11.1172 35.8821C11.2188 35.6546 11.3438 35.4596 11.4766 35.3295C11.8672 34.907 12.1562 34.907 12.6484 34.8745L12.9062 34.8745C15.0859 34.8095 16.1562 34.777 18.3359 34.842C20.3516 34.907 21.1641 35.3946 22.5312 36.2072C23.6953 36.9222 25.4844 38.2224 26.5547 39.0675C26.8828 39.3275 27.6328 39.8151 28.3125 40.2051C28.7656 40.4651 29.1875 40.6927 29.3203 40.6927L31.4375 40.7252C33.1875 40.7252 35.5312 40.7577 36.4375 40.8227C37.0859 40.8877 38.0625 41.1478 38.8438 41.5703C39.5312 41.9279 40.0469 42.4479 40.1797 43.033C40.2109 43.293 40.2109 43.5855 40.1484 43.813C40.0781 44.1056 39.9141 44.3331 39.7188 44.5281C39.5312 44.7231 39.2344 44.8857 38.9453 44.9182C38.7188 44.9507 38.4844 44.9507 38.2266 44.8857C37.9375 44.8207 37.7109 44.6581 37.4453 44.4956C37.2188 44.3331 36.9609 44.1706 36.6641 44.1381C35.8906 43.9756 34.2266 43.9756 33.0234 43.9431C31.7891 43.9431 30.5234 43.8781 29.2891 43.8781C28.4766 43.8781 28.4453 43.8781 27.5 43.3905C26.1719 42.7079 25.2578 42.0579 24.25 41.3428L21.9766 39.7176C21.2266 39.1975 20.9375 38.97 19.4766 38.1899L19.1797 38.0599L17.8828 38.0599C16.2891 38.0599 14.9844 38.0599 13.2656 37.9949L13.1328 37.9949C12.2891 37.9623 11.4453 37.9299 11.1172 37.1172L11.1172 49.6962L11.2188 49.5012C11.4141 49.1437 11.7344 48.8511 12.125 48.7537L12.1562 48.7537C12.7109 48.5911 13.2656 48.7211 13.8203 48.8187L14.2734 48.9161C16.3828 49.2087 17.4609 49.7612 18.9531 50.5413L20.0234 51.0614C20.5156 51.3214 21.1016 51.549 21.6797 51.809L22.6562 52.2316C23.3438 52.524 24.4141 52.9466 25.5156 53.3041C26.5547 53.6292 27.5625 53.9542 28.2812 54.0842C30.0078 54.4418 31.5938 54.6043 33.1875 54.5393C34.7812 54.4743 36.375 54.2143 38.1328 53.7917C39.9531 53.3367 40.9922 52.6866 42.4531 51.744C44.3359 50.5739 46.2266 49.4037 48.1406 48.2336C48.8203 47.811 49.5078 47.3885 50.1562 46.9334C51.3906 46.1208 52.7266 45.3082 53.9609 44.4956C54.2188 44.3331 54.4453 44.2031 54.5781 44.0081C54.8047 43.6505 54.8359 43.2605 54.7422 42.903C54.7031 42.7404 54.6094 42.5779 54.5156 42.4804C54.4141 42.3504 54.3203 42.2529 54.1875 42.1553C53.9297 41.9929 53.6016 41.8953 53.2734 41.9929C52.3672 42.2529 48.7578 44.0406 47.2656 44.7881C46.4844 45.1782 45.7031 45.5358 44.9531 45.9258L44.2734 46.2509C43.75 46.4783 43.2031 46.7709 42.6484 47.0309C41.3828 47.681 40.0781 48.3311 38.7812 48.5586C37.7109 48.7537 36.4375 48.7537 35.3047 48.7537L35.2734 48.8511ZM28.0234 32.5017C28.0234 32.8268 28.0547 33.1193 28.1484 33.3793C28.25 33.6719 28.375 33.9319 28.5391 34.1919C28.7031 34.452 28.9297 34.6795 29.1562 34.8745C29.3828 35.0695 29.6797 35.2321 29.9375 35.3621C30.1328 35.4596 30.3594 35.5246 30.5547 35.5571C30.7812 35.5896 31.0078 35.6221 31.2031 35.6221C31.5 35.6221 31.8203 35.5896 32.1172 35.4921C32.4062 35.3946 32.7031 35.2645 32.9609 35.1021C33.2188 34.9395 33.4531 34.712 33.6406 34.4844C33.8359 34.257 34 33.9969 34.1328 33.7043C34.2266 33.5093 34.2969 33.3143 34.3281 33.0868C34.3594 32.8918 34.3906 32.6642 34.3906 32.4367C34.3906 32.1767 34.3594 31.9492 34.3281 31.7542C34.2969 31.5591 34.2266 31.3641 34.1641 31.2016C34.1016 31.0391 33.9688 30.8441 33.875 30.6815L33.4531 30.1614C33.3203 29.9989 33.1562 29.8689 32.9922 29.7389C32.8281 29.6089 32.6719 29.5114 32.4766 29.4464C32.2812 29.3813 32.0859 29.3163 31.8906 29.2513C31.6953 29.2189 31.4688 29.1863 31.2734 29.1863L31.2422 29.1863C30.3281 29.1863 29.5156 29.5439 28.9297 30.129C28.3438 30.714 27.9922 31.5266 27.9922 32.4367L28.0234 32.5017ZM36.5078 29.4464C42 29.4464 47.4922 29.4464 52.9844 29.4789C53.5703 29.4789 54.125 29.4464 54.5469 29.3813C54.9375 29.3163 55.3281 29.2189 55.6797 29.0888C56.0391 28.9588 56.3984 28.7963 56.7188 28.6013C57.0469 28.4062 57.375 28.1787 57.6641 27.9512C57.9609 27.6912 58.25 27.3986 58.5078 27.1061C59 26.5211 59.3516 25.8384 59.5859 25.1559C59.8125 24.4408 59.9375 23.6607 59.9062 22.9131C59.875 22.133 59.7109 21.3854 59.4219 20.7028C59.125 20.0203 58.7344 19.4027 58.2188 18.8826L57.7969 18.4601L57.4062 18.1351L56.9844 17.8425L56.4609 17.55C55.8438 17.2249 55.2578 17.0624 54.6406 16.9974C54.1875 16.9324 53.7031 16.9324 53.1484 16.9324L49.6328 16.8999C47.9453 16.8999 46.1875 16.8674 44.8594 16.8999L42.8438 16.9324L32.5703 16.9324C30.4297 16.9324 28.9609 16.8999 27.1406 18.3951C26.8828 18.6226 26.7188 18.7851 26.4922 19.0452L26.0703 19.5327L25.7422 20.0528L25.4531 20.6378C25.1953 21.2229 25.0312 21.8405 24.9688 22.3931C24.8984 22.9781 24.8984 23.5632 25 24.1157C25.0938 24.6683 25.2578 25.2534 25.5156 25.7734C25.7812 26.326 26.1328 26.8461 26.5547 27.3661C26.75 27.5612 27.0156 27.8537 27.2422 28.0162C27.6016 27.6912 27.9922 27.3986 28.4141 27.1711C28.9297 26.8785 29.5156 26.6835 30.1016 26.5535C30.6875 26.4235 31.2734 26.3585 31.8594 26.4235C32.4062 26.456 32.9609 26.5861 33.4844 26.8135L33.7109 26.9111C33.9062 26.9761 34.1016 27.0736 34.3281 27.1711C34.5547 27.3011 34.7812 27.4312 35.0078 27.6262L35.5312 28.0487C35.8203 28.3087 36.0469 28.5688 36.2109 28.8288C36.375 29.0563 36.5078 29.2513 36.6328 29.5114L36.5078 29.4464ZM51.4922 12.8044L50.6406 12.8044L50.6406 13.9745L51.4922 13.9745L51.4922 12.8044ZM31.3359 8.1889L28.0234 8.1889L28.0234 13.9745L43.1328 13.9745L43.1328 11.9918C40.5703 10.7567 37.9062 9.55402 35.3672 8.28638C35.2734 8.25391 35.2344 8.22137 35.0078 8.22137L31.3359 8.22137L31.3359 8.1889ZM57.4375 14.6896L57.3359 14.7872C58.4453 15.2747 60.0703 16.2173 61.3359 18.2325C61.6641 18.7851 61.9531 19.3702 62.2188 20.0203C62.4453 20.6378 62.6016 21.2879 62.7031 21.9705C62.7969 22.6205 62.7969 23.2706 62.7656 23.9207C62.7031 24.5383 62.6016 25.1884 62.4141 25.806L62.2188 26.391L61.9219 27.0411L61.6328 27.6586C61.2109 28.4062 60.6875 29.0888 60.1016 29.7064L59.7422 30.0314C59.5469 30.2264 59.3203 30.389 59.0938 30.5515C57.8594 31.4616 56.7188 31.9167 55.5156 32.1442C54.3516 32.3717 53.1484 32.3717 51.75 32.3392L51.6172 32.3392C51.6172 33.6393 51.6172 34.907 51.6484 36.2072L51.5859 36.2072C51.5234 36.5972 51.3594 36.8572 51 37.0522C50.7109 37.2148 50.3828 37.2473 49.8672 37.2798L48.9219 37.2798C48.5625 37.2798 48.2734 37.2798 48.0469 37.2473C47.6875 37.1823 47.4297 37.0522 47.1953 36.7922C47 36.5647 46.9062 36.3047 46.875 35.9796C46.8438 35.7521 46.8438 35.4596 46.8438 35.0695L46.875 32.3717L37.2812 32.3717C37.3203 32.8593 37.3203 33.4118 36.9922 34.4194C36.8281 34.8745 36.6641 35.2645 36.4062 35.6871C36.2109 35.9796 36.0156 36.2397 35.8203 36.4672C35.625 36.7272 35.3984 36.9222 35.1406 37.1498C34.8828 37.3448 34.6172 37.5398 34.3594 37.7023C34.0703 37.8649 33.7734 38.0273 33.4531 38.1574C32.9922 38.3524 32.5078 38.45 32.0156 38.515C31.5312 38.58 30.9766 38.58 30.4922 38.515C29.9688 38.45 29.4844 38.3199 29 38.1574C28.5391 37.9949 28.0859 37.7349 27.6953 37.4423C27.2734 37.1172 27.0781 36.9548 26.7188 36.5647L26.1328 35.7846C25.9375 35.5246 25.7812 35.2321 25.6484 34.9395C25.5156 34.6145 25.3906 34.2894 25.3203 33.9319C25.2266 33.5743 25.1953 33.1518 25.1641 32.6968C25.1641 32.4042 25.1641 32.1442 25.1953 31.8842C25.2266 31.6241 25.2578 31.3641 25.3203 31.1041L25.5156 30.4215L24.9297 29.9339C24.7031 29.7064 24.4766 29.5114 24.2812 29.2513L23.7344 28.5363L23.2109 27.7562C23.0156 27.4312 22.8203 27.0736 22.6562 26.6835C22.4922 26.2935 22.3672 25.871 22.2344 25.4159C22.1406 24.9933 22.0391 24.5383 21.9766 24.1157C21.9453 23.6932 21.9141 23.2382 21.9141 22.8481C21.9453 22.4581 21.9766 22.068 22.0078 21.7104C22.0703 21.3529 22.1406 20.9954 22.2344 20.6703C22.3359 20.3453 22.4609 19.9877 22.5938 19.6953C22.7266 19.3702 22.8828 19.0452 23.0469 18.7201C23.3438 18.2001 23.6953 17.81 24.0234 17.3224C24.2812 16.9974 24.3828 16.9324 24.4766 16.8024C24.7422 16.5424 24.9688 16.3148 25.2578 16.0873C25.1953 15.9248 25.1641 15.7623 25.125 15.5347C25 12.8694 25.0938 10.0416 25.0938 7.34381C25.0938 6.46619 25.1953 6.01111 25.5156 5.6861C25.875 5.32855 26.2969 5.32855 27.0156 5.36102C29.7422 5.36102 33.1562 5.10101 35.7891 5.39355C35.9219 5.42609 36.0156 5.45856 36.1172 5.49109C38.9062 6.98627 42.125 8.38391 44.9531 9.74908C45.4766 9.97656 45.7344 10.3016 45.8984 10.7242C45.9922 11.0817 45.9922 11.4393 45.9609 11.9268L45.9609 14.0071L47.7188 14.0071L47.7188 11.6993C47.7188 11.0167 47.8516 10.5942 48.2031 10.2691C48.5312 10.0091 48.9844 9.94409 49.6328 9.94409L52.4297 9.94409C53.0469 9.94409 53.5078 10.0091 53.8281 10.2691C54.1875 10.5616 54.3516 10.9842 54.3516 11.6668L54.3516 12.7394L55.1328 11.8943C55.5859 11.3743 56.0391 10.8867 56.5234 10.3666C57.9219 8.77393 59.3906 7.21375 60.8203 5.65356C61.1094 5.32855 61.3047 5.10101 61.9844 5.03601L62.3125 5.03601L62.6719 5.10101C62.8672 5.13354 63.0312 5.23102 63.1562 5.29602C63.3203 5.39355 63.4531 5.52356 63.5781 5.65356C63.7109 5.78357 63.8047 5.94611 63.875 6.10864C63.9375 6.27118 64 6.43365 64 6.62872L64 6.98627L63.9375 7.31128C63.9062 7.40881 63.8438 7.57129 63.8438 7.63629C63.7422 7.76636 63.6094 7.96136 63.5156 8.09137C63.0938 8.51392 62.7031 8.96899 62.3125 9.42401L58.5078 13.617C58.25 13.8771 57.8281 14.3321 57.4375 14.7872L57.4375 14.6896ZM3.71094 54.7668C2.96094 54.6368 2.24219 54.1493 2.04688 53.1741C1.85938 52.2316 2.21094 51.5165 2.82812 51.0614C3.05469 50.8989 3.35156 50.7689 3.60938 50.7039C3.90625 50.6389 4.19531 50.6389 4.49219 50.6714C5.23438 50.8014 5.92188 51.2889 6.14844 52.2316C6.40625 53.1741 6.01562 53.9218 5.39844 54.3768C5.17188 54.5393 4.875 54.6693 4.58594 54.7343C4.29688 54.7993 4 54.7993 3.71094 54.7668Z" fill="#355EA5" fill-opacity="1.000000" fill-rule="evenodd"/>
	</g>
</svg>
