<svg width="64.000000" height="64.000000" viewBox="0 0 64 64" fill="none" xmlns="http://www.w3.org/2000/svg" xmlns:xlink="http://www.w3.org/1999/xlink">
	<desc>
			Created with Pixso.
	</desc>
	<defs>
		<clipPath id="clip171_6145">
			<rect id="guarantee 1" width="64.000000" height="64.000000" fill="white" fill-opacity="0"/>
		</clipPath>
	</defs>
	<rect id="guarantee 1" width="64.000000" height="64.000000" fill="#FFFFFF" fill-opacity="0"/>
	<g clip-path="url(#clip171_6145)">
		<path id="Vector" d="M9.21094 23.629L9.24219 13.032L10.8125 13.0655L11.3828 13.0655L13.625 13.0655C13.6953 13.032 13.625 13.032 13.7969 12.9984C13.8594 12.9649 13.8984 12.9649 13.9609 12.9649C14.0625 12.9649 14.1641 12.9649 14.2656 12.9649C14.4609 12.9649 14.6641 12.9313 14.8672 12.8978C15.2656 12.8978 15.7031 12.7972 16.1016 12.8643L16.3047 12.7972C16.875 12.7972 17.7422 12.6631 18.3125 12.5625C18.75 12.4954 19.9219 12.2271 20.2578 12.2607C20.4219 12.0594 20.9609 12.0594 21.1953 11.9924C21.4922 11.8918 21.8281 11.7912 22.1328 11.6906C22.4297 11.59 22.8359 11.3552 23.1016 11.3887C23.1719 11.2881 23.1016 11.3552 23.2031 11.2881C23.3047 11.2211 23.2031 11.2881 23.3359 11.2211L24.0703 10.9193C24.4062 10.651 25.0781 10.4163 25.4453 10.1815C25.8438 9.94678 26.4453 9.54431 26.8203 9.37665L27.7188 8.7395C28.0547 8.50476 28.3203 8.27002 28.6562 8.13586L32.0078 5.45306C32.4062 5.75488 32.7422 6.09021 33.1406 6.4256C33.5156 6.72742 33.9453 6.99567 34.2812 7.33105C34.5859 7.46515 35.2891 8.03528 35.6562 8.27002L36.8906 9.07483L36.9297 9.1084L37.0312 9.17548C37.1953 9.24249 38.8047 10.1815 38.8672 10.2485L40.6797 11.0869C41.0469 11.2211 41.3125 11.3552 41.6797 11.4558C41.9844 11.5564 42.3516 11.657 42.6484 11.7912L43.2891 11.9589C43.2891 11.9589 43.3203 11.9589 43.3203 11.9924L43.4219 12.0259C43.4219 12.0259 43.4531 12.0259 43.4531 12.0594C43.7891 12.0259 44.1562 12.1936 44.4922 12.2271C45.0938 12.3278 45.7344 12.4619 46.3359 12.5289L48.0781 12.7637C48.0781 12.7637 48.1094 12.7637 48.1094 12.7972C48.5078 12.7302 48.9141 12.8307 49.3438 12.8307C50.4219 13.032 52.4297 12.8978 53.7344 12.9649L54.9375 12.9313C55.0703 13.6356 54.9375 23.562 54.9062 25.0375C54.875 26.3118 54.6719 27.6532 54.6719 28.8269C54.6719 28.9275 54.6406 29.0952 54.6406 29.1958C54.6406 29.2629 54.6406 29.2964 54.6016 29.3635C54.5703 29.4976 54.6016 29.4305 54.5391 29.5311C54.6016 29.9 54.4688 30.4031 54.4375 30.8055L54.3672 31.3085C54.2344 32.0463 54.1719 32.6834 54 33.3876C53.8672 33.9913 53.6641 34.7626 53.5625 35.3327C53.5312 35.4668 53.5 35.6345 53.4688 35.7686L53.3281 36.104L53.2969 36.1375C53.3281 36.3723 52.9297 37.7472 52.8281 37.9149L52.5625 38.7867C52.4609 39.1556 51.9922 40.43 51.8594 40.6982C51.7891 40.933 51.5938 41.5366 51.3906 41.6708C51.3906 41.9726 51.125 42.4086 50.9844 42.6768C50.8906 42.9451 50.6875 43.4146 50.4844 43.6158C50.4219 43.9847 49.1484 46.0974 48.9453 46.2986C48.3125 47.64 45.8672 50.3898 44.8984 51.3624C44.125 52.1337 43.3906 52.7708 42.5156 53.5086C42.25 53.7098 40.2422 55.2859 39.8438 55.353C39.7031 55.5542 38.3672 56.3255 38.1016 56.3926C37.7344 56.6609 36.625 57.1304 36.125 57.3316L35.3203 57.6669C35.0547 57.7675 34.7188 57.9017 34.3828 57.9688C34.2188 58.1029 33.5469 58.2706 33.3438 58.2706L32.9766 58.4382C32.0391 58.673 31.4062 58.7065 30.4688 58.237L29.6328 57.9688C29.4922 57.9352 27.8516 57.3986 27.8203 57.231C27.8203 57.1974 27.7891 57.1974 27.7891 57.1974C27.5547 57.1974 27.0156 56.8956 26.7812 56.795C26.4453 56.6273 26.1172 56.4932 25.8438 56.292C25.6094 56.2585 24.6719 55.6548 24.4062 55.4872C24.1094 55.3195 23.2344 54.8165 23.1016 54.5482C22.9688 54.5146 23.0703 54.5482 22.9375 54.4811L22.5312 54.2128C20.125 52.469 18.3828 50.6246 16.5391 48.2436C16.3359 48.0089 15.9375 47.4723 15.8047 47.1705L14.8984 45.8291C14.6641 45.4602 14.1953 44.7225 14.0938 44.3536C13.9609 44.2194 13.1953 42.7439 13.1562 42.5092C12.8906 42.1403 12.5234 41.2013 12.3906 40.6982C12.2188 40.43 11.75 39.1556 11.6875 38.7867L11.4141 37.9149C11.25 37.5795 10.4141 34.4272 10.4453 34.0583L10.25 33.3206C10.0781 32.4822 9.375 28.4245 9.50781 27.6532L9.375 26.5801C9.34375 26.3118 9.3125 25.9094 9.375 25.6746C9.34375 25.6075 9.3125 25.7081 9.3125 25.4734C9.3125 25.1046 9.21094 24.4338 9.3125 24.132C9.27344 24.0649 9.27344 24.132 9.24219 23.9644C9.24219 23.8973 9.24219 23.8637 9.21094 23.7967C9.21094 23.696 9.21094 23.5284 9.21094 23.4278L9.21094 23.629ZM26.0156 5.2854C25.7109 5.58722 23.6016 6.92859 23.2031 6.99567C23.1328 7.09625 23.2031 7.02924 23.1016 7.09625C22.8672 7.26398 21.6641 7.80054 21.4609 7.83405C20.3906 8.3371 18.9844 8.57184 17.6484 8.77301L17.1406 8.87366C16.6719 8.90717 16.1406 9.07483 15.7031 8.97424C15.6328 9.04132 15.8359 9.04132 15.5 9.04132C15.0703 9.07483 14.4609 9.20898 14.0625 9.1084C13.9922 9.14191 14.0625 9.1084 13.9297 9.17548C13.8984 9.17548 13.8594 9.17548 13.7969 9.17548L11.8828 9.24249L10.5781 9.24249C9.3125 9.17548 8.375 9.1084 7.36719 9.61139C7.20312 9.71198 6.86719 9.91321 6.69531 9.98029C6.59375 10.1144 6.69531 10.0474 6.5625 10.0809C6.16406 10.8857 5.15625 10.7181 5.15625 13.7362C5.15625 15.3794 5.15625 17.0562 5.15625 18.6993C5.15625 22.5558 5.125 24.568 5.39062 28.458C5.39062 28.8604 5.49219 29.1622 5.42188 29.5311L5.46094 29.6317C5.46094 29.6317 5.46094 29.6653 5.46094 29.6988L5.52344 30.3024C5.5625 30.9396 5.72656 31.845 5.82812 32.4487C5.89062 32.8846 6.16406 34.1925 6.125 34.4943L6.16406 34.5278L6.26562 34.7961C6.29688 34.9638 6.32812 35.0644 6.32812 35.1985C6.46094 35.8022 6.63281 36.4728 6.76562 37.0765C6.86719 37.4454 7.26562 38.6862 7.23438 38.9545L7.83594 40.6647C8 41.0001 8.17188 41.436 8.27344 41.8384L8.64062 42.7103C8.77344 43.0121 8.875 43.2805 8.97656 43.5823C9.03906 43.6494 9.34375 44.3536 9.40625 44.5212C9.50781 44.756 9.78125 45.2255 9.8125 45.4602C9.94531 45.5609 10.0469 45.762 10.1094 45.8962L10.8828 47.3717L12.5859 49.9539C12.6875 50.1551 12.625 49.9874 12.6562 50.1216C12.8594 50.2222 13.3281 50.96 13.5234 51.1947C15.0312 53.1397 16.375 54.4476 18.25 56.0908C18.6484 56.4597 20.3203 57.6334 20.3906 57.8011C20.5234 57.8346 20.4219 57.7675 20.5938 57.8682C20.6562 57.9017 20.6875 57.9352 20.7578 58.0023L23.1719 59.5114L25.1094 60.4503C25.7422 60.7521 26.4453 61.054 27.1484 61.3223C27.8203 61.5905 28.5234 61.8253 29.2578 62.0265C29.6328 62.1271 31.5078 62.5295 31.6016 62.5966L32.4062 62.5966C32.5391 62.5295 33.9453 62.2612 34.2812 62.1942C34.6875 62.0935 35.7891 61.6911 36.0547 61.6911C36.2266 61.5569 36.8281 61.3558 37.0625 61.2887C37.1641 61.1881 37.7656 60.9869 37.9297 60.9198C38.2031 60.8192 38.6328 60.5845 38.8672 60.5845C39.0703 60.3162 39.4688 60.2491 39.7734 60.0814C40.0078 59.9473 40.4062 59.7126 40.6406 59.6455C40.8125 59.5449 41.2109 59.3101 41.4141 59.2095L42.8516 58.3376C43.0547 58.2035 43.3203 57.9688 43.5547 57.9352C43.6875 57.734 45.2266 56.6609 45.5625 56.3926C45.6641 56.292 45.7656 56.2249 45.8672 56.1578L46.2031 55.9231L50.2188 51.8989L51.2578 50.524C51.4531 50.2557 52.0938 49.2832 52.2969 49.1826C52.3281 49.0485 52.2969 49.149 52.3594 48.9814C52.3906 48.8808 52.3906 48.9143 52.4609 48.8472L53.9375 46.4662C54.0312 46.0638 54.2344 45.8626 54.4375 45.4938C54.5703 45.192 54.7031 44.756 54.9375 44.5548C54.9375 44.2865 55.5703 43.0457 55.7109 42.6768C55.7422 42.5427 55.8438 42.375 55.875 42.2408L55.9766 42.0061C56.1094 41.7714 56.0078 41.9055 56.1094 41.8049C56.1094 41.5702 56.3125 41.0336 56.4141 40.7653C56.5469 40.43 56.6484 40.0946 56.7422 39.7928C56.7812 39.6251 56.8438 39.491 56.8828 39.3233C56.9453 39.1221 56.9453 39.0551 57.0469 38.8874C57.0469 38.6526 57.4141 37.3448 57.5156 37.043L57.7188 36.171C57.9531 34.8632 58.3516 33.4883 58.4844 32.1469L58.7188 30.336C59.0859 28.458 59.125 25.7417 59.1562 23.7296L59.1562 13.8368C59.1562 11.5564 59.0234 12.3613 58.6562 11.0869C58.4531 10.8522 58.25 10.5839 58.0547 10.3827C57.9531 10.2821 57.4453 9.91321 57.4141 9.84613L56.7422 9.54431L56.6094 9.47723L56.5469 9.41022C56.0781 9.34314 55.7109 9.17548 55.1406 9.14191C54.6406 9.14191 54.1016 9.20898 53.6016 9.20898C52.4922 9.20898 51.4531 9.14191 50.3828 9.14191L50.1875 9.1084L48.7812 9.00775C48.7109 9.00775 48.6797 9.00775 48.6094 8.97424C48.6094 8.97424 48.5781 8.97424 48.5781 8.94067C48.5781 8.90717 48.5469 8.90717 48.5469 8.90717C47.9062 9.04132 45.4297 8.50476 44.7266 8.37061C44.0938 8.23645 43.5234 8.03528 43.0234 7.83405C42.5156 7.63281 41.9453 7.39807 41.5469 7.12982C41.4141 7.09625 40.0391 6.35852 39.8438 6.12378C39.4062 5.95612 38.4688 5.25189 38.0312 4.95007C36.9922 4.21228 34.6172 2.2337 33.6797 1.89838C33.4141 1.79779 32.6797 1.66364 32.5078 1.59656L31.5703 1.59656C31.3672 1.69714 30.7344 1.69714 29.8672 2.16663C29.5312 2.33435 26.8516 4.883 26.0469 5.21832L26.0156 5.2854ZM37.125 27.7538L28.8281 35.3662L28.6953 35.1985C28.4609 35.0979 28.0234 34.6955 27.8516 34.4608L27.6562 34.2596L25.3438 32.1804C25.1094 31.9792 24.9766 31.8115 24.7734 31.6439L21.8984 28.9946C21.6641 28.7934 21.5312 28.6592 21.3281 28.458C20.7266 27.955 20.2891 27.3849 19.1875 27.3514C18.25 27.3178 17.9766 27.6532 17.4453 27.8209C17.375 27.955 17.2109 28.0556 17.0781 28.1898C17.0078 28.2903 16.8438 28.4916 16.7734 28.6257C16.5078 29.1287 16.6094 29.3635 16.5078 29.9335L16.7109 30.5037C16.9453 31.1408 17.6094 31.6103 18.0781 32.0463C18.3125 32.281 18.5781 32.5157 18.8125 32.717C19.0156 32.8846 19.4219 33.22 19.5547 33.4212C19.75 33.4883 25.4141 38.7532 25.7812 39.0886C26.2812 39.5245 27.0156 40.3629 27.2891 40.5641C27.4844 40.6982 27.7188 40.7318 27.8516 40.933L28.7891 41.0336L29.5312 40.9666C30.2656 40.7989 30.7031 40.3964 31.0703 39.9269L35.1875 36.171C35.2891 35.9698 35.6562 35.7351 35.8203 35.5674C36.0234 35.3327 36.2266 35.2321 36.4219 34.9973L45.0625 27.1166C45.1641 26.9825 45.4297 26.7477 45.6016 26.5801C45.7969 26.4124 45.9297 26.3118 46.1328 26.1106C46.9375 25.3057 48.7812 23.9644 49.1484 22.9918C49.25 22.69 49.2812 22.3211 49.2812 21.9523C49.1484 21.0468 48.7422 20.8121 48.2734 20.3426L48.1719 20.2755C47.8047 20.1414 47.6719 20.0408 47.2422 19.9737C45.8359 19.806 45.0938 20.4432 44.1953 21.3151C43.1875 22.2876 41.7109 23.5284 40.6406 24.568L37.2656 27.6532C37.125 27.7873 37.2656 27.6867 37.125 27.7538Z" fill="#355EA5" fill-opacity="1.000000" fill-rule="evenodd"/>
	</g>
</svg>
