<svg width="64.000000" height="64.000000" viewBox="0 0 64 64" fill="none" xmlns="http://www.w3.org/2000/svg" xmlns:xlink="http://www.w3.org/1999/xlink">
	<desc>
			Created with Pixso.
	</desc>
	<defs>
		<clipPath id="clip171_6142">
			<rect id="delivery 1" width="64.000000" height="64.000000" fill="white" fill-opacity="0"/>
		</clipPath>
	</defs>
	<rect id="delivery 1" width="64.000000" height="64.000000" fill="#FFFFFF" fill-opacity="0"/>
	<g clip-path="url(#clip171_6142)">
		<path id="Vector" d="M0 10.9708L0 10.0857L-0.0078125 10.0857C-0.0078125 9.42816 0.414062 9.00031 1.0625 9.00031L39.4609 9.00031C40.1094 9.00031 40.5312 9.42816 40.5312 10.0857L40.5312 23.1332C41.2266 23.1332 41.9062 23.1169 42.5703 23.101C46.5625 23.0047 49.8984 22.9245 52.2344 26.5562C52.6328 27.1687 54.8438 31.9697 55.0625 32.92C55.3047 32.92 55.5234 32.918 55.7422 32.916C56.8984 32.9053 57.7109 32.8977 58.75 33.2398C61.6406 34.1901 64 36.9059 64 40.1216L64 49.4131C64 50.8048 62.8516 51.9398 61.7578 52.2911C61.0859 52.5048 59.3203 52.4579 57.9531 52.4218C57.5078 52.4099 57.1016 52.3992 56.7969 52.3992C54.4531 55.9617 50.3516 56.6147 47.5234 54.516C47.0625 54.1782 46.7109 53.935 46.375 53.5071C45.9453 52.9576 45.7734 52.3992 45.3281 52.3992L22.9297 52.3992C22.4922 52.3992 22.3203 52.9531 21.8828 53.5071C19.7578 56.2365 14.4688 56.9661 11.4688 52.3992C10.6797 52.3992 9.89062 52.4025 9.10156 52.4058C7.84375 52.4112 6.58594 52.4165 5.32812 52.4082C4.34375 52.4037 3.625 52.0434 3.09375 51.5525C2.10938 50.6433 2.11719 49.5256 2.13281 48.3958C2.13281 48.2865 2.13281 48.1771 2.13281 48.0678L2.13281 48.0575C2.03125 48.0575 1.92188 48.0602 1.8125 48.063C0.976562 48.0844 0 48.1094 0 46.9676L0 11.0857L-0.0078125 11.0857C-0.0078125 11.0466 -0.0078125 11.0082 0 10.9708ZM38.3906 37.2662L2.125 37.2662L2.125 12.1711L38.3906 12.1711L38.3906 37.2662ZM47.1797 32.9449C45.8516 33.006 44.7969 33.0548 44.7969 31.4248L44.7969 26.3041C47.3984 26.3041 49.1719 26.7184 50.4609 28.8262C50.9688 29.6701 51.7969 31.5381 52.3438 32.92L47.9922 32.92C47.7188 32.92 47.4453 32.9327 47.1797 32.9449ZM40.5312 28.1956C41.0156 28.1055 42.0156 28.092 42.6641 28.155L42.6641 28.155L42.6641 26.3086L40.5312 26.3086L40.5312 28.1956ZM40.5312 31.2538L40.5312 44.8777C44.8438 44.8777 45.5469 44.9668 45.8281 44.6641C46.0781 44.4017 46.0078 43.8447 47.7109 42.6798C50.125 41.0269 53.9297 41.3962 55.8672 43.6481C56.3672 44.2355 56.4453 44.5529 56.6484 44.7212C56.9766 44.9902 57.6172 44.8777 60.8203 44.8777L61.8672 44.8777C61.8672 44.5477 61.875 44.1586 61.8828 43.7369C61.8906 43.3982 61.8984 43.0384 61.8984 42.671C61.8828 41.5892 61.8203 40.547 61.6094 39.8831C61.1641 38.4374 59.9766 37.0727 58.6953 36.5683C57.2109 35.9335 54.4609 36.0046 52.25 36.0618C51.6719 36.0768 51.1328 36.0909 50.6562 36.0909C50.0938 36.0909 49.5234 36.0923 48.9531 36.0938C48.1016 36.0959 47.2422 36.0981 46.3906 36.0954C44.3047 36.0909 44.4141 35.6045 43.3203 34.9604C42.9453 33.9429 42.7812 33.6821 42.7031 33.3967C42.6406 33.145 42.6484 32.8741 42.6562 32.0485C42.6484 31.8727 42.6484 31.6389 42.6562 31.2816C42.0234 31.3393 41.0469 31.33 40.5312 31.2538ZM2.125 41.509L2.125 40.509L2.125 40.509L2.125 40.4415L38.3906 40.4415L38.3906 40.509L38.3594 44.8821L22.7969 44.8821C22.2578 44.7831 21.0938 41.6259 17.0625 41.6259C13.0859 41.6259 11.9766 44.639 11.3281 44.8821L2.125 44.8821L2.125 41.509ZM21.2578 48.7537C21.0156 46.4085 19.1172 44.2222 16.2031 44.9138C14.5469 45.3058 13.0312 46.6365 12.8047 48.5506C12.8203 48.7321 12.8516 48.9176 12.8984 49.1068C13.3672 51.147 15.4375 52.989 18 52.381C20.0781 51.8887 21.0859 50.3759 21.2578 48.7537ZM55.3906 48.7537C55.1484 46.4085 53.25 44.2222 50.3359 44.9138C48.1797 45.4255 47.1406 46.9143 46.9688 48.5122C47.2188 50.8701 49.2109 53.0755 52.1328 52.381C54.2109 51.8887 55.2188 50.3759 55.3906 48.7537ZM10.2578 49.2283L5.72656 49.2283C4.63281 49.2283 4.35938 48.814 4.28906 48.053L10.7031 48.053L10.7266 49.194L10.2578 49.2283ZM44.8594 49.2283L23.4219 49.2283L23.3672 48.053L44.8359 48.053L44.8594 49.2283ZM58.4844 49.2452C58.1484 49.2365 57.8203 49.2283 57.5547 49.2283L57.5312 48.053L61.8359 48.053C61.7734 48.6799 61.5469 49.131 60.7969 49.2194C60.1875 49.2886 59.2812 49.2654 58.4844 49.2452Z" fill="#355EA5" fill-opacity="1.000000" fill-rule="evenodd"/>
	</g>
</svg>
