<svg width="64.000000" height="64.000000" viewBox="0 0 64 64" fill="none" xmlns="http://www.w3.org/2000/svg" xmlns:xlink="http://www.w3.org/1999/xlink">
	<desc>
			Created with Pixso.
	</desc>
	<defs>
		<clipPath id="clip114_976">
			<rect id="ic:outline-speed" width="64.000000" height="64.000000" fill="white" fill-opacity="0"/>
		</clipPath>
	</defs>
	<rect id="ic:outline-speed" width="64.000000" height="64.000000" fill="#FFFFFF" fill-opacity="0"/>
	<g clip-path="url(#clip114_976)">
		<path id="Vector" d="M54.3467 22.8534L51.0664 27.7867C52.6484 30.9416 53.4229 34.4396 53.3203 37.9673C53.2178 41.495 52.2422 44.9422 50.4805 48.0001L13.5205 48.0001C11.2295 44.027 10.2812 39.4217 10.8135 34.8669C11.3467 30.3121 13.333 26.0502 16.4785 22.7132C19.624 19.3761 23.7617 17.1415 28.2764 16.3406C32.792 15.5396 37.4453 16.2151 41.5469 18.2667L46.4805 14.9867C41.457 11.7659 35.5 10.3227 29.5596 10.8879C23.6201 11.453 18.041 13.9939 13.7158 18.1041C9.39062 22.2142 6.56934 27.6562 5.70215 33.5596C4.83496 39.4629 5.97266 45.4864 8.93359 50.6667C9.39844 51.4728 10.0674 52.143 10.8721 52.6108C11.6768 53.0787 12.5898 53.3278 13.5205 53.3334L50.4531 53.3334C51.3936 53.3371 52.3174 53.0925 53.1318 52.6241C53.9473 52.1559 54.624 51.4806 55.0938 50.6667C57.5508 46.4105 58.7832 41.5581 58.6562 36.6453C58.5293 31.7324 57.0469 26.9502 54.373 22.8267L54.3467 22.8534Z" fill="#355EA5" fill-opacity="1.000000" fill-rule="nonzero"/>
		<path id="Vector" d="M28.2402 41.0934C28.7354 41.5892 29.3232 41.9826 29.9707 42.251C30.6182 42.5194 31.3125 42.6576 32.0137 42.6576C32.7139 42.6576 33.4082 42.5194 34.0557 42.251C34.7031 41.9826 35.291 41.5892 35.7871 41.0934L50.8799 18.4534L28.2402 33.5467C27.7441 34.0421 27.3506 34.6302 27.082 35.2777C26.8135 35.9252 26.6758 36.6191 26.6758 37.32C26.6758 38.0209 26.8135 38.7149 27.082 39.3624C27.3506 40.0098 27.7441 40.598 28.2402 41.0934Z" fill="#355EA5" fill-opacity="1.000000" fill-rule="nonzero"/>
	</g>
</svg>
