<svg width="64.000000" height="64.000000" viewBox="0 0 64 64" fill="none" xmlns="http://www.w3.org/2000/svg" xmlns:xlink="http://www.w3.org/1999/xlink">
	<desc>
			Created with Pixso.
	</desc>
	<defs>
		<clipPath id="clip114_988">
			<rect id="ic:baseline-add-chart" width="64.000000" height="64.000000" fill="white" fill-opacity="0"/>
		</clipPath>
	</defs>
	<rect id="ic:baseline-add-chart" width="64.000000" height="64.000000" fill="#FFFFFF" fill-opacity="0"/>
	<g clip-path="url(#clip114_988)">
		<path id="Vector" d="M16 26.64L21.333 26.64L21.333 45.3066L16 45.3066L16 26.64ZM37.333 34.64L42.666 34.64L42.666 45.3066L37.333 45.3066L37.333 34.64ZM26.666 18.64L32 18.64L32 45.3066L26.666 45.3066L26.666 18.64ZM53.333 18.6667L53.333 10.6667L48 10.6667L48 18.6667L40 18.6667L40 24L48 24L48 32L53.333 32L53.333 24L61.333 24L61.333 18.6667L53.333 18.6667ZM48 50.6667L10.666 50.6667L10.666 13.3333L42.666 13.3333L42.666 8L10.666 8C7.7334 8 5.33301 10.4 5.33301 13.3333L5.33301 50.6667C5.33301 53.6 7.7334 56 10.666 56L48 56C50.9326 56 53.333 53.6 53.333 50.6667L53.333 37.3333L48 37.3333L48 50.6667Z" fill="#355EA5" fill-opacity="1.000000" fill-rule="nonzero"/>
	</g>
</svg>
