<svg width="64.000000" height="64.000000" viewBox="0 0 64 64" fill="none" xmlns="http://www.w3.org/2000/svg" xmlns:xlink="http://www.w3.org/1999/xlink">
	<desc>
			Created with Pixso.
	</desc>
	<defs>
		<clipPath id="clip114_971">
			<rect id="ic:outline-business-center" width="64.000000" height="64.000000" fill="white" fill-opacity="0"/>
		</clipPath>
	</defs>
	<rect id="ic:outline-business-center" width="64.000000" height="64.000000" fill="#FFFFFF" fill-opacity="0"/>
	<g clip-path="url(#clip114_971)">
		<path id="Vector" d="M53.333 18.6667L42.666 18.6667L42.666 13.3333L37.333 8L26.666 8L21.333 13.3333L21.333 18.6667L10.666 18.6667C7.7334 18.6667 5.33301 21.0667 5.33301 24L5.33301 37.3333C5.33301 39.3333 6.39941 41.0133 8 41.9467L8 50.6667C8 53.6266 10.373 56 13.333 56L50.666 56C53.626 56 56 53.6266 56 50.6667L56 41.92C57.5732 40.9867 58.666 39.28 58.666 37.3333L58.666 24C58.666 21.0667 56.2666 18.6667 53.333 18.6667ZM26.666 13.3333L37.333 13.3333L37.333 18.6667L26.666 18.6667L26.666 13.3333ZM10.666 24L53.333 24L53.333 37.3333L40 37.3333L40 29.3333L24 29.3333L24 37.3333L10.666 37.3333L10.666 24ZM34.666 40L29.333 40L29.333 34.6667L34.666 34.6667L34.666 40ZM50.666 50.6667L13.333 50.6667L13.333 42.6667L24 42.6667L24 45.3333L40 45.3333L40 42.6667L50.666 42.6667L50.666 50.6667Z" fill="#355EA5" fill-opacity="1.000000" fill-rule="nonzero"/>
	</g>
</svg>
